<svg aria-hidden="true" style="position: absolute; width: 0; height: 0; overflow: hidden;" version="1.1" xmlns="http://www.w3.org/2000/svg" xmlns:xlink="http://www.w3.org/1999/xlink">
<defs>
<symbol id="comment" viewBox="0 0 32 32">
<path d="M4.658 30.088h-2.267l1.603-1.603c0.865-0.864 1.404-1.989 1.55-3.209-2.256-1.48-3.906-3.428-4.789-5.662-0.882-2.232-0.993-4.689-0.321-7.105 0.807-2.9 2.7-5.542 5.33-7.442 2.858-2.064 6.416-3.155 10.289-3.155 4.879 0 8.992 1.402 11.893 4.054 2.614 2.389 4.053 5.612 4.053 9.075 0 1.682-0.343 3.319-1.018 4.865-0.699 1.6-1.723 3.024-3.043 4.234-2.905 2.663-7.015 4.070-11.886 4.070-1.808 0-3.695-0.241-5.379-0.684-1.594 1.636-3.755 2.563-6.016 2.563zM16.053 3.79c-7.767 0-12.532 4.632-13.81 9.222-1.207 4.338 0.572 8.437 4.761 10.965l0.468 0.282-0.014 0.546c-0.029 1.082-0.286 2.123-0.748 3.065 1.124-0.38 2.144-1.070 2.942-2.013l0.397-0.469 0.589 0.176c1.653 0.494 3.575 0.766 5.415 0.766 9.666 0 14.068-5.853 14.068-11.291 0-2.929-1.222-5.659-3.442-7.688-2.549-2.33-6.224-3.562-10.626-3.562z"></path>
</symbol>
<symbol id="like" viewBox="0 0 32 32">
<path d="M32 19c0-0.801-0.319-1.548-0.868-2.099 0.623-0.681 0.94-1.595 0.853-2.545-0.156-1.695-1.683-3.023-3.477-3.023h-8.236c0.408-1.239 1.061-3.509 1.061-5.333 0-2.892-2.457-5.333-4-5.333-1.384 0-2.375 0.78-2.416 0.812-0.159 0.127-0.251 0.319-0.251 0.521v4.521l-3.841 8.319-0.159 0.081v-0.255c0-0.368-0.299-0.667-0.667-0.667h-6.667c-1.839 0-3.333 1.495-3.333 3.333v10.667c0 1.839 1.495 3.333 3.333 3.333h4c1.441 0 2.673-0.92 3.137-2.204 1.109 0.571 2.603 0.871 3.529 0.871h12.239c1.452 0 2.723-0.979 3.021-2.328 0.153-0.696 0.064-1.396-0.24-2.004 0.984-0.495 1.647-1.512 1.647-2.668 0-0.472-0.108-0.924-0.312-1.332 0.984-0.496 1.645-1.512 1.645-2.668zM29.188 20.645c-0.257 0.031-0.475 0.205-0.557 0.452-0.081 0.247-0.013 0.517 0.176 0.696 0.339 0.319 0.527 0.748 0.527 1.207 0 0.841-0.636 1.548-1.477 1.645-0.257 0.031-0.475 0.205-0.557 0.452-0.081 0.247-0.013 0.517 0.176 0.696 0.439 0.413 0.615 0.993 0.483 1.591-0.164 0.744-0.887 1.283-1.719 1.283h-12.239c-1.083 0-2.899-0.508-3.528-1.139-0.191-0.189-0.479-0.245-0.727-0.144-0.249 0.103-0.412 0.347-0.412 0.616 0 1.103-0.897 2-2 2h-4c-1.103 0-2-0.897-2-2v-10.667c0-1.103 0.897-2 2-2h6v0.667c0 0.231 0.12 0.445 0.317 0.568 0.195 0.117 0.44 0.129 0.648 0.028l1.333-0.667c0.135-0.067 0.243-0.179 0.307-0.316l4-8.667c0.040-0.088 0.061-0.184 0.061-0.28v-4.305c0.277-0.153 0.759-0.361 1.333-0.361 0.731 0 2.667 1.816 2.667 4 0 2.347-1.277 5.729-1.289 5.763-0.077 0.204-0.051 0.435 0.073 0.616 0.125 0.18 0.331 0.288 0.549 0.288h9.175c1.112 0 2.056 0.796 2.149 1.812 0.071 0.76-0.295 1.483-0.949 1.887-0.204 0.125-0.325 0.352-0.316 0.593s0.148 0.457 0.361 0.568c0.564 0.287 0.913 0.852 0.913 1.473 0 0.841-0.636 1.548-1.479 1.645z"></path>
<path d="M10 15.333c-0.368 0-0.667 0.299-0.667 0.667v12c0 0.368 0.299 0.667 0.667 0.667s0.667-0.299 0.667-0.667v-12c0-0.368-0.299-0.667-0.667-0.667z"></path>
</symbol>
<symbol id="star" viewBox="0 0 32 32">
<path d="M31.954 12.328c-0.11-0.339-0.404-0.587-0.757-0.638l-9.92-1.442-4.436-8.989c-0.158-0.32-0.484-0.523-0.841-0.523s-0.683 0.203-0.841 0.523l-4.437 8.989-9.92 1.441c-0.353 0.051-0.646 0.299-0.757 0.638s-0.018 0.712 0.237 0.961l7.178 6.997-1.694 9.88c-0.060 0.352 0.084 0.707 0.373 0.917s0.671 0.237 0.987 0.071l8.873-4.665 8.873 4.665c0.137 0.072 0.287 0.108 0.436 0.108 0.194 0 0.388-0.060 0.551-0.179 0.289-0.21 0.433-0.565 0.373-0.917l-1.695-9.88 7.179-6.997c0.256-0.249 0.348-0.622 0.237-0.961zM22.876 19.288c-0.221 0.215-0.322 0.526-0.27 0.83l1.457 8.494-7.627-4.010c-0.273-0.144-0.599-0.144-0.873 0l-7.628 4.010 1.456-8.494c0.052-0.304-0.049-0.614-0.27-0.83l-6.171-6.015 8.528-1.239c0.305-0.044 0.569-0.236 0.706-0.513l3.814-7.728 3.814 7.728c0.137 0.277 0.401 0.469 0.706 0.513l8.528 1.239-6.171 6.015z"></path>
</symbol>
<symbol id="user" viewBox="0 0 32 32">
<path d="M15.772 15.415c2.118 0 3.951-0.76 5.45-2.258s2.258-3.332 2.258-5.449c0-2.117-0.76-3.951-2.258-5.449s-3.332-2.258-5.449-2.258c-2.118 0-3.951 0.76-5.449 2.258s-2.258 3.332-2.258 5.449c0 2.118 0.76 3.951 2.258 5.45s3.332 2.258 5.449 2.258zM11.649 3.584c1.15-1.15 2.498-1.708 4.123-1.708s2.974 0.559 4.124 1.708c1.15 1.15 1.709 2.499 1.709 4.123s-0.559 2.974-1.709 4.124c-1.15 1.15-2.499 1.709-4.124 1.709s-2.973-0.559-4.123-1.709c-1.15-1.15-1.709-2.499-1.709-4.124s0.559-2.973 1.709-4.123z"></path>
<path d="M29.258 24.606c-0.043-0.624-0.131-1.304-0.259-2.022-0.13-0.724-0.297-1.408-0.497-2.033-0.207-0.646-0.488-1.284-0.836-1.896-0.361-0.635-0.784-1.188-1.26-1.642-0.497-0.476-1.106-0.858-1.81-1.137-0.702-0.278-1.479-0.418-2.311-0.418-0.327 0-0.643 0.134-1.253 0.531-0.375 0.245-0.815 0.528-1.305 0.841-0.419 0.267-0.987 0.517-1.688 0.744-0.684 0.221-1.379 0.334-2.065 0.334s-1.38-0.112-2.065-0.334c-0.701-0.226-1.269-0.477-1.687-0.744-0.486-0.31-0.925-0.593-1.306-0.842-0.61-0.397-0.926-0.531-1.252-0.531-0.832 0-1.609 0.141-2.311 0.419-0.704 0.279-1.313 0.661-1.811 1.137-0.476 0.455-0.899 1.008-1.26 1.642-0.347 0.612-0.629 1.25-0.836 1.896-0.2 0.625-0.367 1.309-0.497 2.033-0.129 0.717-0.216 1.398-0.259 2.023-0.042 0.611-0.064 1.247-0.064 1.89 0 1.67 0.531 3.023 1.578 4.020 1.034 0.984 2.402 1.483 4.067 1.483h15.408c1.664 0 3.032-0.499 4.066-1.483 1.047-0.997 1.578-2.349 1.578-4.020-0-0.645-0.022-1.281-0.065-1.89zM26.451 29.158c-0.683 0.65-1.591 0.967-2.774 0.967h-15.408c-1.183 0-2.091-0.316-2.774-0.966-0.67-0.638-0.996-1.509-0.996-2.662 0-0.6 0.020-1.192 0.059-1.76 0.039-0.558 0.117-1.17 0.234-1.821 0.115-0.643 0.262-1.246 0.437-1.792 0.168-0.524 0.396-1.042 0.68-1.542 0.271-0.476 0.582-0.885 0.926-1.214 0.322-0.308 0.727-0.56 1.204-0.749 0.442-0.175 0.938-0.27 1.477-0.285 0.066 0.035 0.183 0.102 0.372 0.225 0.386 0.251 0.83 0.538 1.321 0.852 0.554 0.353 1.267 0.672 2.119 0.947 0.871 0.282 1.76 0.425 2.642 0.425s1.771-0.143 2.642-0.425c0.853-0.276 1.566-0.594 2.121-0.948 0.503-0.321 0.935-0.6 1.32-0.851 0.189-0.123 0.306-0.19 0.372-0.225 0.539 0.014 1.035 0.11 1.477 0.285 0.477 0.189 0.883 0.441 1.204 0.749 0.344 0.329 0.655 0.737 0.926 1.214 0.284 0.499 0.513 1.018 0.68 1.541 0.175 0.547 0.322 1.15 0.438 1.792 0.117 0.652 0.196 1.265 0.234 1.822v0c0.040 0.566 0.060 1.158 0.060 1.759-0 1.153-0.326 2.024-0.996 2.661z"></path>
</symbol>
</defs>
</svg>
